<svg width="16" height="16" viewBox="0 0 16 16" fill="none" xmlns="http://www.w3.org/2000/svg">
<path d="M9.78348 8.17503L15.6472 2.31113C16.0288 1.92971 16.0288 1.313 15.6472 0.931575C15.2658 0.550152 14.6491 0.550152 14.2677 0.931575L8.40375 6.79548L2.54002 0.931575C2.15842 0.550152 1.54189 0.550152 1.16047 0.931575C0.778867 1.313 0.778867 1.92971 1.16047 2.31113L7.0242 8.17503L1.16047 14.0389C0.77887 14.4204 0.77887 15.0371 1.16047 15.4185C1.35056 15.6088 1.60049 15.7043 1.85025 15.7043C2.1 15.7043 2.34976 15.6088 2.54002 15.4185L8.40375 9.55458L14.2677 15.4185C14.4579 15.6088 14.7077 15.7043 14.9574 15.7043C15.2072 15.7043 15.4569 15.6088 15.6472 15.4185C16.0288 15.0371 16.0288 14.4204 15.6472 14.0389L9.78348 8.17503Z" fill="url(#paint0_linear)"/>
<defs>
<linearGradient id="paint0_linear" x1="-7.50238" y1="-9.81201" x2="18.7913" y2="-6.6879" gradientUnits="userSpaceOnUse">
<stop stop-color="#F64D4D"/>
<stop offset="1" stop-color="#4D5EF6"/>
</linearGradient>
</defs>
</svg>
