<svg width="17" height="16" viewBox="0 0 17 16" fill="none" xmlns="http://www.w3.org/2000/svg">
<path d="M12.5 0C10.7641 0 9.45052 1.01876 8.33333 2.08333C7.26876 0.953649 5.90262 0 4.16667 0C1.72187 0 0 2.10207 0 4.39428C0 5.62396 0.503649 6.50991 1.0552 7.34167L7.53072 15.1052C8.25782 15.8745 8.3948 15.8745 9.12187 15.1052L15.612 7.34167C16.2604 6.50991 16.6667 5.62396 16.6667 4.39428C16.6667 2.1021 14.9448 0 12.5 0ZM14.5833 7.12606L8.33333 14.5833L2.08333 7.09531C1.33595 6.05626 1.04167 5.35523 1.04167 4.39428C1.04167 2.60365 2.32032 0.991667 4.16667 0.976552C5.68543 0.964052 7.40678 2.51509 8.33333 3.68437C9.23543 2.55572 10.9812 0.976552 12.5 0.976552C14.2974 0.976552 15.625 2.60365 15.625 4.39428C15.625 5.35523 15.3922 6.10833 14.5833 7.12606Z" fill="black"/>
</svg>
