<svg width="231" height="113" viewBox="0 0 231 113" fill="none" xmlns="http://www.w3.org/2000/svg">
<g filter="url(#filter0_d)">
<path d="M40 50.7024V74.4568H47.8453V68.2467H50.3925C56.4378 68.2467 61.0567 66.1427 61.0567 59.4915C61.0567 52.8063 56.4378 50.7024 50.3925 50.7024H40ZM53.2793 59.4915C53.2793 61.1204 52.1246 61.7991 50.3246 61.7991H47.8453V57.15H50.3246C52.1246 57.15 53.2793 57.8287 53.2793 59.4915Z" fill="white"/>
<path d="M63.4155 50.7024V74.4568H81.4155V67.6019H71.2608V50.7024H63.4155Z" fill="white"/>
<path d="M89.6591 74.4568L90.7119 71.3008H98.9308L99.9497 74.4568H107.897L99.0327 50.7024H90.6101L81.7119 74.4568H89.6591ZM94.1761 60.5774C94.4138 59.6951 94.6516 58.7449 94.8214 57.5233C94.9912 58.7449 95.2289 59.6951 95.5006 60.5774L97.1648 65.6337H92.512L94.1761 60.5774Z" fill="white"/>
<path d="M107.372 62.8171C107.372 71.4705 113.859 74.9997 120.583 74.9997C123.096 74.9997 125.44 74.5246 127.545 73.5744V66.4142C126.323 67.5001 124.047 68.1109 121.602 68.1109C118.478 68.1109 115.421 66.5499 115.421 62.8171C115.421 58.5753 118.511 56.9464 121.772 56.9464C123.878 56.9464 126.051 57.659 127.376 58.5753V51.5847C125.27 50.6345 122.825 50.1594 120.379 50.1594C113.859 50.1594 107.338 53.7904 107.372 62.8171Z" fill="white"/>
<path d="M130.412 50.7024V74.4568H148.615V68.2127H138.257V65.3962H147.189V59.6272H138.257V56.8785H148.412V50.7024H130.412Z" fill="white"/>
<rect x="167.191" y="50.6423" width="7.93625" height="23.8088" fill="#4656E3"/>
<path d="M191 58.5787C181.476 58.5787 175.18 69.1868 175.127 74.4512H167.191C167.191 66.5149 175.127 50.6424 191 50.6424V58.5787Z" fill="#4D5EF6"/>
<path d="M157.747 50.6423L152.118 50.6423C152.117 59.872 157.747 66.2506 162.641 66.2506C167.191 66.2506 172.675 59.7058 172.675 50.6423L167.191 50.6423C167.191 54.0492 164.599 60.1323 162.641 60.1323C160.683 60.1323 157.747 54.1177 157.747 50.6423Z" fill="#F64D4D"/>
<path d="M191 66.5148C181.476 66.5148 175.18 55.9067 175.127 50.6423H167.191C167.191 58.5786 175.127 74.4511 191 74.4511V66.5148Z" fill="#FE5F5F"/>
<rect x="149.811" y="50.6423" width="7.93625" height="23.8088" fill="#E34646"/>
<rect x="167.191" y="40.6426" width="7.93625" height="7.93625" fill="#FE5F5F"/>
<path d="M90.2689 48.4181H88.552V43.6289H88.5148L86.6171 48.3384H85.5009L83.6086 43.6289H83.566V48.4181H81.8491V40.7479H84.1029L86.0377 45.6753H86.0803L88.0151 40.7479H90.2689V48.4181Z" fill="white"/>
<path d="M95.9884 46.7331H93.4794L92.9904 48.4181H91.0024L93.5804 40.7479H95.9671L98.5451 48.4181H96.4721L95.9884 46.7331ZM93.8568 45.3298H95.6056L94.7552 42.3744H94.7126L93.8568 45.3298Z" fill="white"/>
<path d="M102.415 40.7479C103.577 40.7479 104.479 41.0739 105.12 41.7259C105.765 42.3851 106.088 43.3224 106.088 44.5378C106.088 45.7604 105.765 46.7136 105.12 47.3976C104.475 48.078 103.574 48.4181 102.415 48.4181H99.284V40.7479H102.415ZM101.235 46.8448H102.154C103.455 46.8448 104.105 46.0776 104.105 44.5431C104.105 43.8273 103.935 43.2763 103.595 42.89C103.255 42.5109 102.774 42.3213 102.154 42.3213H101.235V46.8448Z" fill="white"/>
<path d="M112.302 48.4181H107.045V40.7479H112.302V42.3213H108.995V43.8468H112.105V45.282H108.995V46.8448H112.302V48.4181Z" fill="white"/>
<path d="M115.603 48.4181V40.7479H117.553V48.4181H115.603Z" fill="white"/>
<path d="M118.717 48.4181V40.7479H120.275L123.528 45.2076H123.57V40.7479H125.42V48.4181H123.879L120.61 43.9159H120.567V48.4181H118.717Z" fill="white"/>
<path d="M128.785 48.4181V40.7479H130.736V44.1179H130.778L133.388 40.7479H135.483L132.809 44.1551L135.637 48.4181H133.346L131.39 45.4202L130.736 46.2494V48.4181H128.785Z" fill="white"/>
<path d="M139.496 40.615C140.658 40.615 141.579 40.9711 142.26 41.6834C142.94 42.3957 143.28 43.3631 143.28 44.5857C143.28 45.8082 142.94 46.7739 142.26 47.4826C141.579 48.1949 140.658 48.551 139.496 48.551C138.33 48.551 137.407 48.1949 136.726 47.4826C136.046 46.7739 135.706 45.8082 135.706 44.5857C135.706 43.3631 136.048 42.3957 136.732 41.6834C137.412 40.9711 138.333 40.615 139.496 40.615ZM139.496 42.199C138.95 42.199 138.514 42.4134 138.188 42.8422C137.859 43.2745 137.694 43.8557 137.694 44.5857C137.694 45.3121 137.857 45.8915 138.183 46.3238C138.509 46.7526 138.946 46.967 139.496 46.967C140.041 46.967 140.477 46.7526 140.803 46.3238C141.133 45.8915 141.298 45.3121 141.298 44.5857C141.298 43.8557 141.133 43.2745 140.803 42.8422C140.477 42.4134 140.041 42.199 139.496 42.199Z" fill="white"/>
<path d="M146.183 44.3996H147.336C147.694 44.3996 147.974 44.3022 148.176 44.1073C148.378 43.9124 148.479 43.6484 148.479 43.3153C148.479 42.9857 148.374 42.7217 148.165 42.5233C147.956 42.3213 147.678 42.2203 147.331 42.2203H146.183V44.3996ZM146.183 48.4181H144.232V40.7479H147.527C148.477 40.7479 149.207 40.9711 149.717 41.4176C150.221 41.857 150.472 42.4772 150.472 43.2781C150.472 43.76 150.359 44.1923 150.132 44.575C149.898 44.9755 149.576 45.2661 149.165 45.4468L150.695 48.4181H148.506L147.193 45.7338H146.183V48.4181Z" fill="white"/>
<path d="M156.707 48.4181H151.45V40.7479H156.707V42.3213H153.401V43.8468H156.511V45.282H153.401V46.8448H156.707V48.4181Z" fill="white"/>
<path d="M162.368 46.7331H159.859L159.37 48.4181H157.382L159.96 40.7479H162.347L164.925 48.4181H162.852L162.368 46.7331ZM160.237 45.3298H161.986L161.135 42.3744H161.093L160.237 45.3298Z" fill="white"/>
</g>
<defs>
<filter id="filter0_d" x="0" y="0.61499" width="231" height="114.385" filterUnits="userSpaceOnUse" color-interpolation-filters="sRGB">
<feFlood flood-opacity="0" result="BackgroundImageFix"/>
<feColorMatrix in="SourceAlpha" type="matrix" values="0 0 0 0 0 0 0 0 0 0 0 0 0 0 0 0 0 0 127 0" result="hardAlpha"/>
<feOffset/>
<feGaussianBlur stdDeviation="20"/>
<feColorMatrix type="matrix" values="0 0 0 0 0 0 0 0 0 0 0 0 0 0 0 0 0 0 0.12 0"/>
<feBlend mode="normal" in2="BackgroundImageFix" result="effect1_dropShadow"/>
<feBlend mode="normal" in="SourceGraphic" in2="effect1_dropShadow" result="shape"/>
</filter>
</defs>
</svg>
