<svg width="17" height="16" viewBox="0 0 17 16" fill="none" xmlns="http://www.w3.org/2000/svg">
<path d="M16.397 15.1295L12.2661 11.0646C13.3478 9.8893 14.0125 8.33495 14.0125 6.62455C14.012 2.96568 10.9983 0 7.28041 0C3.56253 0 0.548828 2.96568 0.548828 6.62455C0.548828 10.2834 3.56253 13.2491 7.28041 13.2491C8.88678 13.2491 10.3601 12.6935 11.5174 11.7697L15.6644 15.8507C15.8664 16.0498 16.1945 16.0498 16.3965 15.8507C16.5991 15.6517 16.5991 15.3286 16.397 15.1295ZM7.28041 12.2299C4.13468 12.2299 1.58458 9.72029 1.58458 6.62455C1.58458 3.52881 4.13468 1.01923 7.28041 1.01923C10.4262 1.01923 12.9762 3.52881 12.9762 6.62455C12.9762 9.72029 10.4262 12.2299 7.28041 12.2299Z" fill="black"/>
</svg>
