<svg width="45" height="45" viewBox="0 0 45 45" fill="none" xmlns="http://www.w3.org/2000/svg">
<g filter="url(#filter0_d)">
<rect x="8.5" y="8.01147" width="28" height="28" rx="4" fill="white"/>
<g clip-path="url(#clip0)">
<path d="M26.5392 17.0346L22.9845 13.4627C22.7173 13.195 22.2824 13.1953 22.0161 13.4622L18.4608 17.0347C18.1945 17.3023 18.1955 17.7351 18.4631 18.0015C18.7307 18.2678 19.1635 18.2668 19.4298 17.9992L21.8164 15.601V30.0781C21.8164 30.4556 22.1224 30.7617 22.5 30.7617C22.8775 30.7617 23.1836 30.4556 23.1836 30.0781V15.601L25.5701 17.9991C25.8365 18.2667 26.2693 18.2677 26.5369 18.0014C26.8045 17.735 26.8054 17.3022 26.5392 17.0346Z" fill="url(#paint0_linear)"/>
</g>
<rect x="8.9375" y="8.44897" width="27.125" height="27.125" rx="3.5625" stroke="url(#paint1_linear)" stroke-width="0.875"/>
</g>
<defs>
<filter id="filter0_d" x="0.5" y="0.0114746" width="44" height="44" filterUnits="userSpaceOnUse" color-interpolation-filters="sRGB">
<feFlood flood-opacity="0" result="BackgroundImageFix"/>
<feColorMatrix in="SourceAlpha" type="matrix" values="0 0 0 0 0 0 0 0 0 0 0 0 0 0 0 0 0 0 127 0" result="hardAlpha"/>
<feOffset/>
<feGaussianBlur stdDeviation="4"/>
<feColorMatrix type="matrix" values="0 0 0 0 0 0 0 0 0 0 0 0 0 0 0 0 0 0 0.08 0"/>
<feBlend mode="normal" in2="BackgroundImageFix" result="effect1_dropShadow"/>
<feBlend mode="normal" in="SourceGraphic" in2="effect1_dropShadow" result="shape"/>
</filter>
<linearGradient id="paint0_linear" x1="13.5466" y1="1.10938" x2="28.5063" y2="1.97033" gradientUnits="userSpaceOnUse">
<stop stop-color="#F64D4D"/>
<stop offset="1" stop-color="#4D5EF6"/>
</linearGradient>
<linearGradient id="paint1_linear" x1="-7.075" y1="-11.433" x2="41.8138" y2="-5.62431" gradientUnits="userSpaceOnUse">
<stop stop-color="#F64D4D"/>
<stop offset="1" stop-color="#4D5EF6"/>
</linearGradient>
<clipPath id="clip0">
<rect width="17.5" height="17.5" fill="white" transform="translate(13.75 13.2615)"/>
</clipPath>
</defs>
</svg>
