<svg width="32" height="32" viewBox="0 0 32 32" fill="none" xmlns="http://www.w3.org/2000/svg">
<g opacity="0.6" filter="url(#filter0_d)">
<rect x="6.28027" y="6" width="20" height="20" rx="2.83105" fill="white"/>
<rect x="6.45721" y="6.17694" width="19.6461" height="19.6461" rx="2.65411" stroke="#FF4343" stroke-width="0.353882"/>
</g>
<g clip-path="url(#clip0)">
<path d="M20.0303 11.7142H18.066V11.3571C18.066 10.7663 17.5854 10.2856 16.9946 10.2856H15.566C14.9752 10.2856 14.4946 10.7663 14.4946 11.3571V11.7142H12.5303C12.038 11.7142 11.6375 12.1148 11.6375 12.6071V13.8571C11.6375 14.0543 11.7974 14.2142 11.9946 14.2142H12.1898L12.4983 20.6937C12.5256 21.266 12.9957 21.7142 13.5685 21.7142H18.9921C19.565 21.7142 20.0351 21.266 20.0623 20.6937L20.3708 14.2142H20.566C20.7633 14.2142 20.9232 14.0543 20.9232 13.8571V12.6071C20.9232 12.1148 20.5226 11.7142 20.0303 11.7142ZM15.2089 11.3571C15.2089 11.1602 15.3691 10.9999 15.566 10.9999H16.9946C17.1915 10.9999 17.3517 11.1602 17.3517 11.3571V11.7142H15.2089V11.3571ZM12.3517 12.6071C12.3517 12.5086 12.4318 12.4285 12.5303 12.4285H20.0303C20.1288 12.4285 20.2089 12.5086 20.2089 12.6071V13.4999C20.0988 13.4999 12.8078 13.4999 12.3517 13.4999V12.6071ZM19.3488 20.6598C19.3397 20.8505 19.183 20.9999 18.9921 20.9999H13.5685C13.3776 20.9999 13.2209 20.8505 13.2118 20.6598L12.9049 14.2142H19.6558L19.3488 20.6598Z" fill="#FF4343"/>
<path d="M16.2802 20.2856C16.4775 20.2856 16.6374 20.1257 16.6374 19.9285V15.2856C16.6374 15.0884 16.4775 14.9285 16.2802 14.9285C16.083 14.9285 15.9231 15.0884 15.9231 15.2856V19.9285C15.9231 20.1257 16.083 20.2856 16.2802 20.2856Z" fill="#FF4343"/>
<path d="M18.066 20.2856C18.2632 20.2856 18.4231 20.1257 18.4231 19.9285V15.2856C18.4231 15.0884 18.2632 14.9285 18.066 14.9285C17.8688 14.9285 17.7089 15.0884 17.7089 15.2856V19.9285C17.7089 20.1257 17.8688 20.2856 18.066 20.2856Z" fill="#FF4343"/>
<path d="M14.4945 20.2856C14.6917 20.2856 14.8516 20.1257 14.8516 19.9285V15.2856C14.8516 15.0884 14.6917 14.9285 14.4945 14.9285C14.2972 14.9285 14.1373 15.0884 14.1373 15.2856V19.9285C14.1373 20.1257 14.2972 20.2856 14.4945 20.2856Z" fill="#FF4343"/>
</g>
<defs>
<filter id="filter0_d" x="0.618164" y="0.33789" width="31.3242" height="31.3242" filterUnits="userSpaceOnUse" color-interpolation-filters="sRGB">
<feFlood flood-opacity="0" result="BackgroundImageFix"/>
<feColorMatrix in="SourceAlpha" type="matrix" values="0 0 0 0 0 0 0 0 0 0 0 0 0 0 0 0 0 0 127 0" result="hardAlpha"/>
<feOffset/>
<feGaussianBlur stdDeviation="2.83105"/>
<feColorMatrix type="matrix" values="0 0 0 0 0 0 0 0 0 0 0 0 0 0 0 0 0 0 0.08 0"/>
<feBlend mode="normal" in2="BackgroundImageFix" result="effect1_dropShadow"/>
<feBlend mode="normal" in="SourceGraphic" in2="effect1_dropShadow" result="shape"/>
</filter>
<clipPath id="clip0">
<rect width="11.4286" height="11.4286" fill="white" transform="translate(10.566 10.2856)"/>
</clipPath>
</defs>
</svg>
