<svg width="45" height="44" viewBox="0 0 45 44" fill="none" xmlns="http://www.w3.org/2000/svg">
<g opacity="0.6" filter="url(#filter0_d)">
<rect x="8.5" y="8" width="28" height="28" rx="4" fill="white"/>
<g clip-path="url(#clip0)">
<path d="M14.9687 29.9999H23.4691C23.728 29.9999 23.9378 29.79 23.9378 29.5311V28.5311C23.9378 27.92 23.5459 27.3989 23.0003 27.2054V26.5955C23.0003 25.8534 22.3966 25.2498 21.6545 25.2498H16.7833C16.0413 25.2498 15.4375 25.8534 15.4375 26.5955V27.2054C14.892 27.3989 14.5 27.92 14.5 28.5311V29.5311C14.5 29.79 14.7098 29.9999 14.9687 29.9999ZM16.7833 26.1873H21.6545C21.8796 26.1873 22.0628 26.3704 22.0628 26.5955V27.1249H16.3751V26.5955C16.3751 26.3704 16.5582 26.1873 16.7833 26.1873ZM15.4375 28.5311C15.4375 28.2726 15.6478 28.0624 15.9062 28.0624H22.5315C22.79 28.0624 23.0003 28.2726 23.0003 28.5311V29.0624H15.4375V28.5311Z" fill="black"/>
<path d="M19.8996 23.7587C20.3646 24.3763 21.2476 24.5042 21.869 24.0364C22.2828 23.7249 22.4753 23.2273 22.4189 22.7466C22.822 22.678 23.2115 22.5659 23.5819 22.4146L27.9708 28.2441C28.4359 28.862 29.319 28.9893 29.9401 28.5218C30.5595 28.0553 30.6842 27.1719 30.2177 26.5524L25.8289 20.723C26.0765 20.4089 26.2919 20.0657 26.4693 19.6975C26.9211 19.8869 27.4517 19.8333 27.8609 19.5252C28.4804 19.0588 28.6051 18.1754 28.1386 17.5559L25.883 14.5599C25.4166 13.9404 24.5332 13.8159 23.9137 14.2823C23.4998 14.5938 23.3073 15.0913 23.3637 15.572C21.5974 15.8729 20.0914 17.0065 19.3136 18.6207C18.8626 18.4316 18.3343 18.4829 17.9217 18.7934C17.3008 19.2609 17.1765 20.1418 17.644 20.7628L19.8996 23.7587ZM25.1775 21.4164L25.8034 22.2479L25.0544 22.8117L24.4284 21.9804C24.6937 21.814 24.9442 21.6253 25.1775 21.4164ZM29.3762 27.7727C29.1696 27.9283 28.8752 27.8868 28.7197 27.6802L25.6182 23.5607L26.3673 22.9969L29.4687 27.1162C29.6242 27.3228 29.5826 27.6172 29.3762 27.7727ZM24.4776 15.0313C24.6848 14.8753 24.9791 14.9181 25.1341 15.1239L27.3896 18.1198C27.5451 18.3262 27.5036 18.6208 27.2971 18.7762C27.0902 18.9321 26.7966 18.8907 26.6407 18.6837L24.3851 15.6877C24.2296 15.4812 24.2711 15.1867 24.4776 15.0313ZM23.7917 16.4582C23.9947 16.728 25.5296 18.7668 25.736 19.0408C25.0963 20.596 23.6629 21.6755 21.9911 21.8604L20.0467 19.2777C20.6872 17.7207 22.1183 16.6434 23.7917 16.4582ZM18.4857 19.5424C18.6921 19.3869 18.9859 19.4276 19.1421 19.635L21.3977 22.6309C21.3977 22.6309 21.3977 22.6309 21.3977 22.631C21.5531 22.8375 21.5116 23.1319 21.3051 23.2874C21.0986 23.4428 20.8042 23.4013 20.6486 23.1949L18.393 20.1989C18.2373 19.9919 18.2787 19.6983 18.4857 19.5424Z" fill="black"/>
</g>
<rect x="8.75" y="8.25" width="27.5" height="27.5" rx="3.75" stroke="black" stroke-width="0.5"/>
</g>
<defs>
<filter id="filter0_d" x="0.5" y="0" width="44" height="44" filterUnits="userSpaceOnUse" color-interpolation-filters="sRGB">
<feFlood flood-opacity="0" result="BackgroundImageFix"/>
<feColorMatrix in="SourceAlpha" type="matrix" values="0 0 0 0 0 0 0 0 0 0 0 0 0 0 0 0 0 0 127 0" result="hardAlpha"/>
<feOffset/>
<feGaussianBlur stdDeviation="4"/>
<feColorMatrix type="matrix" values="0 0 0 0 0 0 0 0 0 0 0 0 0 0 0 0 0 0 0.08 0"/>
<feBlend mode="normal" in2="BackgroundImageFix" result="effect1_dropShadow"/>
<feBlend mode="normal" in="SourceGraphic" in2="effect1_dropShadow" result="shape"/>
</filter>
<clipPath id="clip0">
<rect width="16" height="16" fill="white" transform="translate(14.5 14)"/>
</clipPath>
</defs>
</svg>
