<svg width="32" height="32" viewBox="0 0 32 32" fill="none" xmlns="http://www.w3.org/2000/svg">
<g filter="url(#filter0_d)">
<g opacity="0.6" filter="url(#filter1_d)">
<rect x="6.28027" y="6" width="20" height="20" rx="2.83105" fill="white"/>
<rect x="6.45721" y="6.17694" width="19.6461" height="19.6461" rx="2.65411" stroke="url(#paint0_linear)" stroke-width="0.353882"/>
</g>
<path d="M21.3765 13.409C21.7292 13.0563 21.7237 12.6008 21.3707 12.2478L19.6202 10.4973C19.2672 10.1443 18.8117 10.1388 18.459 10.4915L12.0427 16.9079L11.1697 20.1148C11.077 20.5599 11.3081 20.791 11.7532 20.6983L14.9601 19.8253L21.3765 13.409ZM12.0444 19.8236L12.6877 17.4299L14.4381 19.1803L12.0444 19.8236ZM15.0159 18.6026C14.4169 18.0031 13.4352 17.022 13.2654 16.8522L17.0205 13.097L18.771 14.8475L15.0159 18.6026ZM19.3487 14.2698L17.5982 12.5193L18.7537 11.3639C19.0303 11.0692 19.0576 11.0716 19.3343 11.3668L20.5013 12.5337C20.7854 12.822 20.8037 12.8171 20.5042 13.1144L19.3487 14.2698L19.3487 14.2698Z" fill="url(#paint1_linear)"/>
</g>
<defs>
<filter id="filter0_d" x="0.618164" y="0.33789" width="31.3242" height="31.3242" filterUnits="userSpaceOnUse" color-interpolation-filters="sRGB">
<feFlood flood-opacity="0" result="BackgroundImageFix"/>
<feColorMatrix in="SourceAlpha" type="matrix" values="0 0 0 0 0 0 0 0 0 0 0 0 0 0 0 0 0 0 127 0" result="hardAlpha"/>
<feOffset/>
<feGaussianBlur stdDeviation="2.83105"/>
<feColorMatrix type="matrix" values="0 0 0 0 0 0 0 0 0 0 0 0 0 0 0 0 0 0 0.08 0"/>
<feBlend mode="normal" in2="BackgroundImageFix" result="effect1_dropShadow"/>
<feBlend mode="normal" in="SourceGraphic" in2="effect1_dropShadow" result="shape"/>
</filter>
<filter id="filter1_d" x="0.618164" y="0.33789" width="31.3242" height="31.3242" filterUnits="userSpaceOnUse" color-interpolation-filters="sRGB">
<feFlood flood-opacity="0" result="BackgroundImageFix"/>
<feColorMatrix in="SourceAlpha" type="matrix" values="0 0 0 0 0 0 0 0 0 0 0 0 0 0 0 0 0 0 127 0" result="hardAlpha"/>
<feOffset/>
<feGaussianBlur stdDeviation="2.83105"/>
<feColorMatrix type="matrix" values="0 0 0 0 0 0 0 0 0 0 0 0 0 0 0 0 0 0 0.08 0"/>
<feBlend mode="normal" in2="BackgroundImageFix" result="effect1_dropShadow"/>
<feBlend mode="normal" in="SourceGraphic" in2="effect1_dropShadow" result="shape"/>
</filter>
<linearGradient id="paint0_linear" x1="-4.84473" y1="-7.88889" x2="30.0758" y2="-3.73985" gradientUnits="userSpaceOnUse">
<stop stop-color="#F64D4D"/>
<stop offset="1" stop-color="#4D5EF6"/>
</linearGradient>
<linearGradient id="paint1_linear" x1="23.8276" y1="1.87731" x2="28.7926" y2="7.22952" gradientUnits="userSpaceOnUse">
<stop stop-color="#F64D4D"/>
<stop offset="1" stop-color="#4D5EF6"/>
</linearGradient>
</defs>
</svg>
