<svg width="32" height="32" viewBox="0 0 32 32" fill="none" xmlns="http://www.w3.org/2000/svg">
<g opacity="0.6" filter="url(#filter0_d)">
<rect x="6.28027" y="6" width="20" height="20" rx="2.83105" fill="white"/>
<rect x="6.45721" y="6.17694" width="19.6461" height="19.6461" rx="2.65411" stroke="#6DCC5C" stroke-width="0.353882"/>
</g>
<path d="M15.5544 16.1759C15.5544 16.7675 15.4549 17.2845 15.2558 17.7269C15.0568 18.1664 14.7748 18.5024 14.4098 18.7346C14.0449 18.9668 13.6191 19.0829 13.1325 19.0829C12.657 19.0829 12.2354 18.9668 11.8677 18.7346C11.5 18.4996 11.2138 18.1664 11.0092 17.7351C10.8074 17.3011 10.7037 16.7993 10.6982 16.2298V15.7943C10.6982 15.2137 10.7991 14.7009 11.0009 14.2558C11.2028 13.8107 11.4875 13.4706 11.8552 13.2356C12.2257 12.9978 12.6487 12.8789 13.1242 12.8789C13.6081 12.8789 14.0338 12.9964 14.4015 13.2314C14.772 13.4637 15.0568 13.8024 15.2558 14.2475C15.4549 14.6898 15.5544 15.2054 15.5544 15.7943V16.1759ZM14.7623 15.786C14.7623 15.07 14.6186 14.5212 14.331 14.1397C14.0435 13.7554 13.6412 13.5632 13.1242 13.5632C12.6211 13.5632 12.2243 13.7554 11.934 14.1397C11.6465 14.5212 11.4986 15.052 11.4903 15.7321V16.1759C11.4903 16.8698 11.6354 17.4158 11.9257 17.8139C12.2188 18.2093 12.6211 18.407 13.1325 18.407C13.6468 18.407 14.0449 18.2204 14.3269 17.8471C14.6089 17.4711 14.754 16.9334 14.7623 16.2339V15.786ZM21.3893 19H20.5889L17.5491 14.347V19H16.7488V12.9619H17.5491L20.5972 17.6356V12.9619H21.3893V19Z" fill="#6DCC5C"/>
<defs>
<filter id="filter0_d" x="0.618164" y="0.33789" width="31.3242" height="31.3242" filterUnits="userSpaceOnUse" color-interpolation-filters="sRGB">
<feFlood flood-opacity="0" result="BackgroundImageFix"/>
<feColorMatrix in="SourceAlpha" type="matrix" values="0 0 0 0 0 0 0 0 0 0 0 0 0 0 0 0 0 0 127 0" result="hardAlpha"/>
<feOffset/>
<feGaussianBlur stdDeviation="2.83105"/>
<feColorMatrix type="matrix" values="0 0 0 0 0 0 0 0 0 0 0 0 0 0 0 0 0 0 0.08 0"/>
<feBlend mode="normal" in2="BackgroundImageFix" result="effect1_dropShadow"/>
<feBlend mode="normal" in="SourceGraphic" in2="effect1_dropShadow" result="shape"/>
</filter>
</defs>
</svg>
