<svg width="45" height="44" viewBox="0 0 45 44" fill="none" xmlns="http://www.w3.org/2000/svg">
<g filter="url(#filter0_d)">
<rect x="8.5" y="8" width="28" height="28" rx="4" fill="white"/>
<path d="M30.4424 26.4323L29.5131 23.7278C29.9611 22.8121 30.1978 21.7937 30.1994 20.7691C30.2021 18.9874 29.5128 17.3028 28.2584 16.0256C27.0037 14.7482 25.3317 14.0291 23.5505 14.0009C21.7035 13.9717 19.9673 14.6743 18.6621 15.9794C17.4035 17.238 16.7055 18.8971 16.6834 20.6701C15.4429 21.6041 14.7108 23.0602 14.7132 24.6155C14.7143 25.3433 14.8782 26.0667 15.1886 26.721L14.5485 28.5837C14.4384 28.9039 14.5188 29.2516 14.7583 29.4911C14.9268 29.6596 15.1489 29.7493 15.3774 29.7493C15.4735 29.7493 15.5708 29.7334 15.6656 29.7008L17.5284 29.0607C18.1826 29.3712 18.9061 29.535 19.6339 29.5361C19.6365 29.5361 19.639 29.5361 19.6416 29.5361C21.2201 29.5361 22.6873 28.785 23.6178 27.5142C24.5862 27.4887 25.5442 27.2543 26.4104 26.8306L29.1149 27.7599C29.2276 27.7986 29.3432 27.8175 29.4574 27.8175C29.7289 27.8175 29.9929 27.7108 30.1932 27.5105C30.4777 27.226 30.5732 26.8128 30.4424 26.4323ZM19.6416 28.5837C19.6395 28.5837 19.6374 28.5837 19.6354 28.5837C18.9912 28.5828 18.3514 28.424 17.7855 28.1245C17.6691 28.063 17.5325 28.0523 17.408 28.0951L15.4979 28.7514L16.1543 26.8414C16.197 26.7169 16.1864 26.5803 16.1249 26.4639C15.8254 25.8979 15.6666 25.2582 15.6656 24.614C15.664 23.5778 16.0671 22.5956 16.772 21.8602C17.0023 23.2638 17.6712 24.5573 18.7082 25.5758C19.7375 26.5867 21.0313 27.2304 22.4273 27.4409C21.6901 28.1674 20.6965 28.5837 19.6416 28.5837ZM29.5197 26.8371C29.4926 26.8642 29.4604 26.8716 29.4243 26.8591L26.5291 25.8642C26.4788 25.847 26.4265 25.8384 26.3743 25.8384C26.2975 25.8384 26.2209 25.857 26.1517 25.8937C25.325 26.331 24.3909 26.5629 23.4502 26.5644C23.4471 26.5644 23.4443 26.5644 23.4412 26.5644C20.2892 26.5644 17.6857 24.0039 17.6357 20.8527C17.6106 19.2657 18.2143 17.7741 19.3355 16.6528C20.4568 15.5316 21.9486 14.9281 23.5354 14.9531C26.6897 15.0031 29.2519 17.6115 29.247 20.7676C29.2455 21.7083 29.0136 22.6424 28.5763 23.469C28.5148 23.5854 28.5042 23.722 28.5469 23.8465L29.5418 26.7417C29.5542 26.778 29.5467 26.8101 29.5197 26.8371Z" fill="url(#paint0_linear)"/>
<path d="M26.2778 18.2345H20.604C20.341 18.2345 20.1278 18.4477 20.1278 18.7107C20.1278 18.9737 20.3411 19.1868 20.604 19.1868H26.2778C26.5408 19.1868 26.754 18.9736 26.754 18.7107C26.754 18.4477 26.5408 18.2345 26.2778 18.2345Z" fill="url(#paint1_linear)"/>
<path d="M26.2778 20.1929H20.604C20.341 20.1929 20.1278 20.4061 20.1278 20.6691C20.1278 20.9321 20.3411 21.1453 20.604 21.1453H26.2778C26.5408 21.1453 26.754 20.9321 26.754 20.6691C26.754 20.4061 26.5408 20.1929 26.2778 20.1929Z" fill="url(#paint2_linear)"/>
<path d="M24.094 22.1515H20.6042C20.3412 22.1515 20.128 22.3647 20.128 22.6276C20.128 22.8906 20.3412 23.1038 20.6042 23.1038H24.0939C24.3569 23.1038 24.5701 22.8906 24.5701 22.6276C24.5701 22.3647 24.357 22.1515 24.094 22.1515Z" fill="url(#paint3_linear)"/>
<rect x="8.75" y="8.25" width="27.5" height="27.5" rx="3.75" stroke="url(#paint4_linear)" stroke-width="0.5"/>
</g>
<defs>
<filter id="filter0_d" x="0.5" y="0" width="44" height="44" filterUnits="userSpaceOnUse" color-interpolation-filters="sRGB">
<feFlood flood-opacity="0" result="BackgroundImageFix"/>
<feColorMatrix in="SourceAlpha" type="matrix" values="0 0 0 0 0 0 0 0 0 0 0 0 0 0 0 0 0 0 127 0" result="hardAlpha"/>
<feOffset/>
<feGaussianBlur stdDeviation="4"/>
<feColorMatrix type="matrix" values="0 0 0 0 0 0 0 0 0 0 0 0 0 0 0 0 0 0 0.08 0"/>
<feBlend mode="normal" in2="BackgroundImageFix" result="effect1_dropShadow"/>
<feBlend mode="normal" in="SourceGraphic" in2="effect1_dropShadow" result="shape"/>
</filter>
<linearGradient id="paint0_linear" x1="5.59999" y1="3.06297" x2="33.524" y2="6.43354" gradientUnits="userSpaceOnUse">
<stop stop-color="#F64D4D"/>
<stop offset="1" stop-color="#4D5EF6"/>
</linearGradient>
<linearGradient id="paint1_linear" x1="5.59999" y1="3.06297" x2="33.524" y2="6.43354" gradientUnits="userSpaceOnUse">
<stop stop-color="#F64D4D"/>
<stop offset="1" stop-color="#4D5EF6"/>
</linearGradient>
<linearGradient id="paint2_linear" x1="5.59999" y1="3.06297" x2="33.524" y2="6.43354" gradientUnits="userSpaceOnUse">
<stop stop-color="#F64D4D"/>
<stop offset="1" stop-color="#4D5EF6"/>
</linearGradient>
<linearGradient id="paint3_linear" x1="5.59999" y1="3.06297" x2="33.524" y2="6.43354" gradientUnits="userSpaceOnUse">
<stop stop-color="#F64D4D"/>
<stop offset="1" stop-color="#4D5EF6"/>
</linearGradient>
<linearGradient id="paint4_linear" x1="-7.075" y1="-11.4445" x2="41.8138" y2="-5.63579" gradientUnits="userSpaceOnUse">
<stop stop-color="#F64D4D"/>
<stop offset="1" stop-color="#4D5EF6"/>
</linearGradient>
</defs>
</svg>
