<svg width="16" height="16" viewBox="0 0 16 16" fill="none" xmlns="http://www.w3.org/2000/svg">
<path d="M15.1665 6.24434C15.4419 5.96241 15.2828 5.48714 14.8932 5.4277L10.2603 4.72087L8.19675 0.329187C8.02248 -0.0416958 7.49493 -0.0416951 7.32066 0.329188L5.25707 4.72087L0.624099 5.42771C0.234512 5.48715 0.0754861 5.96239 0.35084 6.24433L3.71787 9.6919L2.92549 14.5468C2.86042 14.9455 3.28353 15.2437 3.63714 15.0484L7.75871 12.7723L11.8802 15.0484C12.2338 15.2437 12.6569 14.9454 12.5918 14.5467L11.799 9.69187L15.1665 6.24434ZM7.75871 11.6027L4.0133 13.7025L4.72819 9.46551L1.5036 6.17385L5.86507 5.60667L7.75871 1.57089L9.63521 5.60669L13.9821 6.22328L10.7892 9.48114L11.4567 13.7181L7.75871 11.6027Z" fill="black"/>
</svg>
