<svg width="16" height="16" viewBox="0 0 16 16" fill="none" xmlns="http://www.w3.org/2000/svg">
<path d="M8.25876 2.13965L9.97799 5.88864L13.9358 6.43151L11.0405 9.29139L11.7674 13.3759L8.25876 11.3944L4.75012 13.3759L5.47698 9.29139L2.58167 6.43151L6.53953 5.88864L8.25876 2.13965Z" fill="url(#paint0_linear)"/>
<path d="M15.6664 6.24434C15.9418 5.96241 15.7828 5.48714 15.3932 5.4277L10.7603 4.72087L8.69669 0.329187C8.52242 -0.0416958 7.99487 -0.0416951 7.8206 0.329188L5.75701 4.72087L1.12404 5.42771C0.734451 5.48715 0.575425 5.96239 0.850779 6.24433L4.2178 9.6919L3.42543 14.5468C3.36036 14.9455 3.78347 15.2437 4.13708 15.0484L8.25865 12.7723L12.3801 15.0484C12.7338 15.2437 13.1569 14.9454 13.0918 14.5467L12.299 9.69187L15.6664 6.24434ZM8.25865 11.6027L4.51324 13.7025L5.22813 9.46551L2.00354 6.17385L6.36501 5.60667L8.25865 1.57089L10.1351 5.60669L14.482 6.22328L11.2891 9.48114L11.9567 13.7181L8.25865 11.6027Z" fill="black"/>
<defs>
<linearGradient id="paint0_linear" x1="-3.7341" y1="-5.6633" x2="16.0848" y2="-3.28383" gradientUnits="userSpaceOnUse">
<stop stop-color="#F64D4D"/>
<stop offset="1" stop-color="#4D5EF6"/>
</linearGradient>
</defs>
</svg>
