<svg width="11" height="11" viewBox="0 0 11 11" fill="none" xmlns="http://www.w3.org/2000/svg">
<path d="M6.7903 5.1457L10.6842 1.25171C10.9376 0.998417 10.9376 0.588885 10.6842 0.335596C10.4309 0.0823078 10.0214 0.0823078 9.76807 0.335596L5.87407 4.22959L1.98019 0.335596C1.72678 0.0823078 1.31737 0.0823078 1.06408 0.335596C0.810672 0.588885 0.810672 0.998417 1.06408 1.25171L4.95796 5.1457L1.06408 9.0397C0.810673 9.29299 0.810673 9.70252 1.06408 9.95581C1.19031 10.0822 1.35628 10.1456 1.52214 10.1456C1.68799 10.1456 1.85384 10.0822 1.98019 9.95581L5.87407 6.06181L9.76807 9.95581C9.89442 10.0822 10.0603 10.1456 10.2261 10.1456C10.392 10.1456 10.5578 10.0822 10.6842 9.95581C10.9376 9.70252 10.9376 9.29299 10.6842 9.0397L6.7903 5.1457Z" fill="black"/>
</svg>
